<svg height='100px' width='100px'  fill="#000000" xmlns="http://www.w3.org/2000/svg" xmlns:xlink="http://www.w3.org/1999/xlink" version="1.1" x="0px" y="0px" viewBox="0 0 80 80" enable-background="new 0 0 80 80" xml:space="preserve"><path d="M22.2,33.9c0.1-0.3,0-0.7,0.2-0.9c0.7-0.7,1.4-1.4,2.1-2.1c0.7-0.6,1.3-1.3,2-1.9c1.5-1.3,3.4-1.8,5.3-2.2  c0.8-0.2,1.4-0.5,2.1-0.9c1.6-1,3.3-1.9,5.2-2.4c1.9-0.5,3.6-0.3,5.4,0.5c1.2,0.5,2.3,0.7,3.7,0.4c1.7-0.3,3.4-0.3,5.1-0.2  c0.5,0,1.2,0.5,1.6,0.9c1.4,1.3,2.8,2.8,4.2,4.1c0.6,0.5,1.3,1,2.1,1.2c2,0.5,3.6,1.6,4.7,3.3c0.9,1.5,2,2.9,2.1,4.7  c0,0.2,0.1,0.4,0.3,0.6c1.4,1.4,1.5,3.4,2.3,5.1c0.2,0.4,0.3,0.9,0.6,1.3c0.9,1.1,0.7,2-0.6,2.6c-0.1,0.1-0.3,0.1-0.3,0.1  c-0.4,0.4-0.8,0.7-1,1.2c-0.1,0.1,0.5,0.6,0.9,0.8c0.9,0.5,1.7,1,2.7,1.3c0.9,0.3,1.2,1.2,1.4,1.9c0.2,0.6,0,1.4-0.1,2.1  c0,0.2-0.5,0.3-0.7,0.4c0-0.2-0.1-0.5,0-0.7c0.4-1.4-0.4-2.7-1.8-3.1c-1-0.3-2.1-0.5-2.9-1.4c-0.1-0.2-0.5-0.3-0.7-0.2  c-0.7,0.3-0.8-0.3-1-0.6c-0.2-0.5-0.3-1-0.4-1.6c-1.1,0.6-2.1,1.4-2.9,2.4c-0.4,0.5-0.5,1.1-0.2,1.8c0.2-0.4,0.4-0.9,0.6-1.3  c0.1-0.2,0.4-0.3,0.5-0.4c0,0.2,0,0.5-0.1,0.6c-0.3,0.6-0.5,1.2-0.1,1.9c0.2-0.5,0.3-0.9,0.5-1.3c0.1,0,0.2,0,0.2,0  c0,0.2,0.1,0.5,0,0.7c-0.2,0.6,0.1,0.9,0.7,0.9c0.4,0.1,0.8,0.1,1.1,0.3c0.6,0.4,1.1,0.3,1.6-0.2c0.1-0.1,0.4-0.2,0.6-0.2  c0.1,0.2,0.2,0.4,0.2,0.6c0,0.1,0,0.3,0.1,0.3c0.7,0.5,0.2,0.8-0.2,1.1c-0.4,0.3-0.9,0.5-1.4,0.7c0.5,0.7,0.9,1.2,1.3,1.8  c0,0,0.1,0,0.1-0.1c0-0.2-0.1-0.4-0.1-0.6c0.1-0.3,0.2-0.5,0.3-0.8c0.2,0.1,0.5,0.2,0.7,0.3c0.2,0.2,0.4,0.4,0.7,0.6  c0-0.2,0-0.4,0-0.5c0.1-0.2,0.3-0.5,0.4-0.7c0.1,0.2,0.3,0.3,0.4,0.5c0.2,0.3,0.4,0.5,0.4,0.8c0.1,0.3,0,0.7,0,1  c-0.3-0.1-0.6-0.2-0.9-0.3c-0.1,0-0.1-0.1-0.1-0.1c-0.3,0.2-0.6,0.6-0.9,0.6c-0.3,0-0.6-0.3-1-0.5c-0.3,0.5-0.8,0.6-1.3,0  c-0.4-0.4-0.8-0.8-1-1.3c-0.2-0.5-0.4-1.1-0.4-1.7c0-0.5-0.2-0.9-0.6-1c-0.9-0.3-1.8-0.5-2.6-0.8c-0.5-0.2-1-0.5-1.5-0.7  c-0.1-0.1-0.3-0.2-0.4-0.2c-1,0-1.9-0.2-2.9-0.1c-1,0.1-1.9,0.5-2.9,0.6c-1.2,0.2-2.5,0.3-3.7,0.4c-1.2,0.1-2.5,0.1-3.7,0  c-1.8-0.1-3.6-0.3-5.4-0.8c-1.5-0.4-3.1-0.3-4.6-0.5c-0.9-0.1-1.8-0.2-2.7-0.4c-0.9-0.1-1.8,0-2.7-0.4c-0.1-0.1-0.4,0-0.5,0.1  c0,0.1,0,0.1-0.1,0.2c0.9,0.5,1.8,0.9,2.7,1.5c0.8,0.5,1.6,1,2.5,1.5c0.3,0.2,0.6,0.4,0.9,0.7c0.2,0.1,0.2,0.4,0.4,0.6  c-0.2,0.1-0.4,0.2-0.6,0.2c-0.2,0.1-0.4,0.1-0.6,0.1c0.2,0.1,0.3,0.3,0.5,0.4c0.2,0.1,0.4,0.1,0.5,0.3c0.1,0.2,0.2,0.5,0.1,0.6  c-0.1,0.1-0.4,0.2-0.6,0.2c-0.2,0-0.4-0.1-0.6-0.2c0.1,0.3,0.3,0.7,0.2,0.9c-0.1,0.3-0.4,0.3-1.5-0.2c-0.5,0.8-0.6,0.8-1.6,0.6  c-0.8-0.2-1.5-0.2-2.3-0.3c-0.4,0-0.8,0-1.1-0.2c-1.7-1-3.5-1.9-5.1-3.1c-1-0.8-2.2-1.6-2.6-3c-0.2-0.8-0.4-1.6-0.6-2.5  c-0.1,0-0.3,0-0.4,0.1c-1.2,0.7-2.5,0.4-3.8,0.2c-0.2,0-0.6,0-0.7,0.2c-0.1,0.1-0.2,0.5-0.1,0.6c0.5,1,0.4,1.9-0.5,2.4  c-0.6,0.4-1.4,0.5-2.1,0.7c-0.8,0.2-1.6,0.2-2.3-0.5c-0.5-0.5-1-0.9-1.5-1.4c-0.1-0.1-0.1-0.2-0.1-0.3c0.2-1.2-0.7-1-1.5-1.2  c-1.3-0.3-2.7-0.6-3.9-1.4c-0.9-0.6-1.3-1.4-1.5-2.4c-0.2-1.5,0.6-2.6,1.5-3.7c0.2-0.3,0.7-0.4,1.1-0.4c1.7-0.3,3.3-0.6,5-0.8  c0.6-0.1,1.2,0.2,1.8,0.2c1.1,0,2.1,0,3.2,0c-0.3-0.4-0.7-0.8-1-1.2c-0.1-0.2-0.1-0.5,0-0.7c0.8-1.7,1.5-3.4,2.8-4.9  c0.2-0.2,0.4-0.3,0.6-0.4c0.5-0.3,1-0.6,1.6-0.8C21.5,33.9,21.9,33.9,22.2,33.9c-0.3,0.3-0.6,0.7-0.8,0.9c0.5,0.3,1,0.6,1.5,0.9  c0,0.1-0.1,0.2-0.1,0.3c-0.6,0.1-1.3,0.1-2,0.2c0.6,1-0.3,1.4-0.7,1.9c0.2,0.1,0.3,0.2,0.4,0.3c-0.2,0.2-0.5,0.4-0.5,0.5  c0,0.6-0.2,0.9-0.8,0.8c-0.1,0-0.3,0.1-0.4,0.1c-0.3,0.1-0.6,0.1-0.9,0.2c0-0.3-0.1-0.6-0.1-0.8c0-0.1,0.1-0.2,0.1-0.5  c-0.3,0.3-0.5,0.5-0.5,0.7c-0.2,0.6-0.4,1.2,0,1.7c0.3,0.5,0.8,0.7,1.4,0.6c0.6-0.1,1.3-0.1,1.9-0.2c0.3,0,0.8-0.1,1-0.3  c0.5-0.6,1-1.2,1.4-1.9c0.6-1,1.1-2.1,1.6-3.2c0.4-0.8,0.1-1.3-0.8-1.5c-0.3-0.1-0.7-0.1-1-0.2C22.6,34.3,22.4,34,22.2,33.9z   M65.7,35.2c-0.2-1.2-1-1.9-1.7-2.7c-0.4,0.2-0.7,0.4-1.1,0.7c1,0.2,1.7,0.6,2.3,1.3C65.3,34.7,65.5,34.9,65.7,35.2  c0.3,0.9,0.2,1.8-0.3,2.6c-0.4,0.7-0.9,0.7-1.3,0.1c-0.1-0.1-0.3-0.2-0.5-0.3c-0.1-0.1-0.3-0.2-0.5-0.3c0.9-0.6,1.1-1.2,0.9-1.7  c-0.7-0.1-1.6,0.1-1.8-0.2c-0.6-0.8-1.1-1.9-0.4-3c0.2-0.3,0.6-0.4,1-0.7c-0.5-0.2-1.1-0.5-1.7-0.8c-0.3-0.1-0.7-0.2-1.1-0.3  c-0.3,0-0.6,0-0.9,0.1c0.1,0.3,0.1,0.7,0.3,0.9c0.6,0.5,0.9,1.1,1.1,1.8c0.2,0.8,0.6,1.6,0.9,2.4c0.3,0.7,0.7,1.4,0.4,2.3  c-0.1,0.4-0.1,1,0.7,1c1.5,0.1,3,0,4.4-0.7C67.1,37.1,66.7,36,65.7,35.2z M21.8,48.6c-0.2,0.1-0.2,0.1-0.3,0.1  c-0.2,0.1-0.5,0.2-0.7,0.3c0-0.2,0-0.5,0-0.7c0-1.1,0-2.1,0-3.2c0-0.4,0.1-0.8,0.1-1.2c0.2,0.3,0.5,0.5,0.8,0.8  c0.3-0.3,0.6-0.4,0.8,0.3c0.3-0.2,0.6-0.5,1.1-0.8c0,0.7,0.1,1.2-0.1,1.6c0,0.1-0.7,0-1.1,0c0,1,0,2,0,3.1c0.5,0.1,0.9-0.1,1.1-0.6  c0.3-0.5,0.8-1,1.1-1.5c0.1-0.2,0.2-0.5,0.2-0.7c0-0.5,0-1-0.1-1.5c0-0.1,0-0.1,0-0.2c-0.2,0.1-0.4,0.1-0.5,0.1  c-0.5-0.5-1-0.9-1.5-1.3c-0.2-0.2-0.5-0.3-0.7-0.3c-0.9,0-1.7,0.1-2.6,0.2c-0.8,0-1.7,0.3-2.3,0c-1.2-0.7-2.5-0.4-3.8-0.5  c-1.4-0.1-2.9,0.1-4.3,0.3c-0.9,0.1-1.7,0.3-2.5,1c-1.2,1.1-1.1,2.4-0.7,3.6C6,48,6.2,48.2,6.7,48c0.4-0.1,1-0.2,1.4,0  c1.4,0.4,2.8,0.8,4.2,0.6c0.4-0.1,0.7,0,1.1,0c0.1,0,0.3,0.3,0.3,0.4c0,0.1-0.2,0.4-0.3,0.4c-1.3,0.2-2.6,0.3-3.9-0.1  C8.9,49,8.3,49,7.6,48.8c0,0.1,0,0.2-0.1,0.3c0.4,0.1,0.9,0.2,1.3,0.3c1.4,0.3,2.7,0.8,4.2,0.8c1.6,0,3.2-0.1,4.7-0.7  c0.1,0,0.2-0.1,0.3-0.2c1-1.6,1.2-4.1-0.7-5.2c-0.1,0-0.1-0.1-0.1-0.2c0.5-0.5,0.7-0.5,1.5,0.4c0.4,0.5,0.6,1,0.9,1.6  c0.1-0.4,0-0.8-0.1-1.1c0-0.2,0.1-0.5,0.1-0.7c0.2,0.1,0.4,0.3,0.6,0.5c0.1,0.1,0.1,0.3,0.1,0.5c0,0.9,0.1,1.8,0.1,2.7  c0,0.5-0.2,1-0.4,1.6C21.2,49.7,21.6,49.5,21.8,48.6z M43.3,38.7c1.5-0.3,2.8-0.6,4.1-0.8c0.1,0,0.2-0.1,0.3-0.2  c0.7-0.8,0.7-1.8,0.5-2.8c-0.2-1.4-0.5-2.7-0.6-4.1c0-0.5-0.2-0.6-0.5-0.7c-1.4-0.7-3-0.8-4.5-1c-1.6-0.3-3.3-0.3-4.8,0.4  c-0.3,0.1-0.7,0.2-0.8,0.4c-1,1.4-2.1,2.8-2.5,4.6c-0.4,1.3,0.4,2.3,1.7,2.3c0.1,0,0.3,0.1,0.4,0.1c0.4,0.2,0.9,0.4,1.3,0.5  c1,0.3,2,0.5,3,0.7C41.6,38.3,42.5,38.5,43.3,38.7z M31,47.7c-0.2-1.2-1-1.7-1.9-2.1c-0.3-0.1-0.8-0.1-1.1,0.1  c-0.6,0.2-1,0.6-1.6,0.8c-2.1,0.9-2.7,3.7-1.5,5.4c1.4,1.9,3.2,3.3,5.1,4.6c0.5,0.3,1,0.5,1.6,0.6c0.8,0,1.7-0.2,2.6-0.2  c-0.1-0.9,0.7-0.5,1.3-0.5c0-0.9,0.7-0.6,1.2-0.7c-0.4-0.5-0.8-0.9-1.4-1.2c-0.5-0.3-1.1-0.4-1.6-0.6c-0.3-0.1-0.6-0.2-0.9,0  c-0.3,0.2-0.8,0.1-1.3,0.1c-0.1,0-0.2-0.3-0.3-0.4c0.2-0.1,0.3-0.2,0.5-0.3c0.3-0.1,0.5-0.1,0.9-0.1c-0.7-0.8-1.1-1-1.4-0.5  c-0.4,0.6-1,0.4-1.5,0.3c-0.5-0.1-0.8-0.5-0.9-1.2c0.3,0.2,0.5,0.3,0.7,0.4c0.5,0.4,0.7,0.4,0.8-0.3c0-0.2,0.2-0.4,0.3-0.6  c-0.2-0.1-0.5,0-0.6-0.2c-0.3-0.2-0.5-0.5-0.7-0.7c0.3,0,0.6,0.1,0.9,0.1c0.3,0,0.7,0.1,0.8-0.1c0.3-0.5-0.3-0.5-0.5-0.6  c-0.6-0.2-1.3-0.3-1.9-0.5c-0.2-0.1-0.4-0.4-0.4-0.7c0-0.2,0.3-0.4,0.3-0.4c0.5,0.3,0.8,0.6,1.1,0.7c0.4,0.2,0.8,0.2,1.3,0.3  c0.3,0,0.8,0.4,1-0.3c-0.6-0.2-1.1-0.4-1.7-0.7c-0.2-0.1-0.3-0.4-0.4-0.6c0.2,0,0.4-0.1,0.6-0.1C30.5,47.7,30.7,47.7,31,47.7z   M49.7,35.8c-0.1,0-0.2,0.1-0.3,0.2c-0.1,0.6-0.1,1.2-0.1,1.9c0,0.1,0.1,0.3,0.3,0.4c0.4,0.3,0.7,0.5,1.1,0.7  c0.8,0.4,1.6,0.9,2.7,0.7c0.7-0.1,1.5-0.1,2.3-0.1c1.7,0.1,3.4,0.8,4.8-0.8c0-0.1,0.1-0.1,0.2-0.1c0.6-0.1,0.7-0.5,0.6-0.9  c-0.1-0.4-0.1-0.9-0.3-1.3c-0.3-0.7-0.7-1.3-0.9-2c-1.2-3.2-2.9-3.6-5.8-3.7c-1,0-2.1,0.1-3.1,0.2c-0.5,0-1,0.1-1.5-0.1  c-0.7-0.2-1.1,0.1-1,0.8c0.1,0.5,0.2,1,0.1,1.4c-0.2,0.8,0.2,1.5,0.4,2.2C49.2,35.5,49.5,35.6,49.7,35.8z M22.9,33.7  c0.3,0.1,0.4,0.1,0.5,0.1c1.4,0.4,2.8,0.7,4.2,1.1c0.3,0.1,0.6,0.1,0.9,0.2c0.8,0.1,1.6,0.2,2.4,0.4c1.2,0.2,1.8,0,2.4-1.1  c0.9-1.5,1.7-3,2.6-4.5c0.2-0.3,0.6-0.5,0.9-0.8c0-0.1-0.1-0.2-0.1-0.3c-1-0.4-2-1-3.1-1.2c-2.5-0.4-4.7,0.5-6.7,2  c-1.2,0.9-2.2,2.1-3.3,3.1C23.4,32.9,23.2,33.2,22.9,33.7z M57.4,51.2c-0.1-0.8-0.4-1.4-1.2-1.3c-1.3,0.1-2.5,0.2-3.8-0.3  c-0.2-0.1-0.4,0-0.6,0.1c-0.3,0.1-0.7,0.2-1,0.2c-0.5,0-0.9-0.1-1.4-0.2c-1.6-0.2-3.3-0.4-4.8-0.8c-0.9-0.2-1.8-0.3-2.6-0.1  c-1.7,0.4-3.3,0-4.8-0.1c-0.2,0.7-0.5,1.3-0.7,2c1.2,0.2,2.4,0.4,3.5,0.6c1.4,0.2,2.8,0.8,4.2,0.4c0.7-0.2,1.4-0.1,2.1-0.2  c0.4-0.1,0.8-0.2,1.3-0.2c0,0.1,0.1,0.2,0.1,0.2c-0.2,0.2-0.5,0.4-0.9,0.7c1.4,0.2,2.6,0.3,3.8,0.4c0.8,0.1,1.5,0,2.3,0  c0.2,0,0.4,0,0.5-0.1c0.3-0.7,1-0.6,1.5-0.7C55.7,51.5,56.5,51.4,57.4,51.2z M59.5,41.2c-0.7-0.1-1.2-0.1-1.8-0.2  c-1.3-0.2-2.5-0.7-3.9-0.4c-0.8,0.2-1.6,0.4-2.4,0.5c0.2,1.3,0.4,2.4,0.6,3.5c0.1,0.4,0.1,0.8,0.2,1.2c0.1,0.6-0.3,1.3,0.7,1.8  c0.7,0.3,1.2,0.8,2,0.6c0.3-0.1,0.6-0.1,0.8,0c1.7,0.3,3.1-0.3,4.6-1c0.3-0.1,0.6-0.6,0.6-1C61.1,44.2,60.2,42.6,59.5,41.2z   M66.3,43c-0.4-0.2-0.8-0.5-1.2-0.6c-0.3-0.1-0.7-0.1-1-0.1c-0.4,0-0.7,0.1-1.1,0.1c-0.2,0.1-0.5,0.2-0.7,0.3  c-0.1,0-0.3-0.3-0.2-0.4c0.1-0.2,0.2-0.5,0.3-0.7c0.7-0.5,1.4-0.5,2.1-0.1c0.4,0.3,0.6,0.3,1-0.1c0.2-0.2,0.8-0.1,1.2-0.1  c0,0.2,0,0.5,0,0.8c0.2,0.1,0.5,0.1,0.7,0.3c0.1,0.1-0.2,0.4-0.2,0.5c0.3,0.2,0.5,0.3,0.7,0.5c0.2,0.2,0.4,0.4,0.7,0.5  c0.4,0.1,0.8,0,1.3,0c-0.4-1.2-0.8-2.5-1.4-3.7c-0.2-0.5-0.7-0.9-1.5-0.7c-1,0.3-2,0.4-3.1,0.4c-0.8,0-1.6-0.2-2.4-0.2  c-0.5-0.1-0.9,0.3-0.9,0.7c0,0.4,0.1,0.9,0.3,1.3c0.3,1.1,0.8,2.1,1.1,3.2c0.1,0.5,0.1,1,0.2,1.6c1.9-0.4,3.7-0.4,5.6,0  c0.4,0.1,0.8,0.2,1,0.5c0.3,0.4,0.6,0.5,1.1,0.2c0.3-0.1,0.5-0.3,0.8-0.4c0.6-0.2,0.7-0.6,0.3-1.1c-0.3-0.3-0.6-0.7-0.8-1  c-0.4,0.2-0.8,0.5-1.2,0.5c-1.2,0-2.3-0.1-3.5-0.2c-0.5,0-1.1-0.3-1.6-0.2c-0.8,0.1-1.1,0-1.3-1c1.2,0,2.3-0.9,3.6-0.3  C66,43.5,66.2,43.2,66.3,43z M31.8,43.9c0.3-0.9,0.6-1.6,0.7-2.4c0.3-1.5,1.5-2.8,0.8-4.5c-0.2-0.6-0.4-0.8-1-0.5  c-0.2,0.1-0.6,0.1-0.8,0.1c-1.4-0.5-2.8-0.9-4.2-0.8c-0.1,0-0.3,0-0.4-0.1c-0.8-0.5-1.1,0-1.4,0.6c-0.3,0.5-0.4,1.1-0.7,1.6  c-0.6,1-1.3,2-1.9,3c-0.4,0.6-0.3,0.9,0.4,1.2c1,0.4,2,0.9,3.2,1C28.2,43.2,29.9,43.6,31.8,43.9z M51.5,46.3  C51.5,46.3,51.5,46.3,51.5,46.3c-0.2-1.4-0.3-2.9-0.6-4.3c-0.1-0.4-0.3-0.7-0.5-1.1c-0.4-0.8-1.4-0.9-2-1.5  c-0.7-0.6-1.5-0.6-2.3-0.5c-0.6,0.1-1.2,0.2-1.8,0.4c-0.8,0.2-1.4,0.6-1.6,1.5c-0.3,0.9-0.7,1.7-0.7,2.6c0,0.9,0.3,1.9,0.6,2.8  c0.1,0.3,0.9,0.4,1.3,0.5c0.5,0.2,1,0.3,1.5,0.5c1.6,0.6,3.4,0.8,5.1,0.8c0.9,0,1.1-0.3,1-1.1C51.5,46.7,51.5,46.5,51.5,46.3z   M41.7,47.2c-0.1-0.7-0.2-1.3-0.3-1.9c-0.1-0.6-0.3-1.3-0.3-1.9c0.1-1,0.3-1.9,0.5-2.9c0.1-0.7-0.1-1.1-0.8-1.2  c-0.4-0.1-0.9-0.1-1.3-0.2c-1.1-0.3-2.1-0.7-3.2-1c-0.8-0.3-1.3,0-1.6,0.9c-0.1,0.3-0.3,0.5-0.4,0.8c-0.6,1.3-1.1,2.5-1.7,3.8  c-0.2,0.5,0,0.7,0.4,0.9c0.5,0.2,1.1,0.5,1.6,0.8C36.8,46.6,39.1,47.1,41.7,47.2z M34.3,26.4c0.3,0.1,0.5,0.2,0.7,0.3  c0.9,0.2,1.7,0.3,2.2,1.2c0,0.1,0.2,0.1,0.3,0.2c0.7,0.2,1.3,0.4,2.1,0.1c0.4-0.2,1,0,1.5,0c1.2,0.1,2.4,0.2,3.6,0.3  c0.7,0.1,1.5,0.2,2.3,0.3c0-0.1,0.1-0.5,0-0.7c-0.5-1-1-1.9-1.6-2.9c0,0-0.1-0.1-0.1-0.1c-0.9-0.3-1.7-0.8-2.6-1  c-1.5-0.4-3-0.2-4.5,0.3C37,24.9,35.7,25.5,34.3,26.4z M51.1,25.9c-0.1,0.3-0.1,0.6-0.2,0.8c0.2,0,0.5,0,0.7,0.1  c0.2,0,0.5,0,0.6,0.2c0.3,0.5,0.7,0.5,1,0.3c0.3-0.4,0.5-0.9,0.6-1.4c0-0.1-0.4-0.2-0.6-0.4c-0.1-0.1-0.2-0.1-0.2-0.2  c0-0.6-0.5-0.4-0.8-0.4c-0.7,0.1-1.3,0.2-2,0.3c-0.9,0.1-1.8,0.1-2.6,0.2c0.2,0.6,0.4,1.1,0.4,1.6c0.1,1,0.5,1.9,1.3,2.6  c0.3,0.2,0.7,0.5,1,0.5c0.7,0.1,1.3-0.1,2-0.1c1.6,0,3.1-0.1,4.7-0.1c0.5,0,1,0.4,1.5,0.6c0-0.4,0-0.4-1.5-1.6  c-0.1-0.1-0.3-0.2-0.4-0.1c-0.7,0.4-1.4,0.3-2.1-0.2c-0.2-0.1-0.5-0.2-0.8-0.2c-0.8,0-1.7,0-2.4,0c-0.3-0.3-0.5-0.5-0.7-0.8  c0.1-0.1,0.3-0.2,0.6-0.4c-0.7,0-1.3-0.3-1.2-0.9C50,25.7,50.6,25.8,51.1,25.9z M29.7,45.2c0.4,0.3,0.8,0.7,1.2,0.7  c1,0,0.8,0.5,0.5,1.2c0.4,0,0.8,0.1,1.2,0.1C32.1,45.8,30.5,44.8,29.7,45.2z M64.8,48.5c-1.9,0.4-3.2,2.1-2.1,3.7  C61.8,50.1,63.8,49.7,64.8,48.5z M32.9,49.6c0.5-0.2,1.1-0.1,1.1-0.9c-0.4,0.1-0.7,0.1-0.9,0.1C33,49.1,32.9,49.3,32.9,49.6z   M61.3,51.2c0.1,0,0.2,0,0.2,0c0.1-0.6,0.3-1.3,0.4-1.9c-0.1,0-0.2,0-0.3-0.1C61.5,49.9,61.4,50.5,61.3,51.2z M32.8,48.3  c0-0.1,0-0.2,0-0.3c-0.4-0.1-0.9-0.2-1.5-0.3c0.1,0.3,0.1,0.6,0.2,0.6C31.9,48.3,32.4,48.3,32.8,48.3z M34,48  c0.1,0.1,0.1,0.1,0.2,0.2c0.3-0.3,0.6-0.6,0.9-0.9C34.1,46.9,34.3,47.8,34,48z"></path><path d="M73.6,57.1c-0.1,0.1-0.3,0.4-0.4,0.4c-0.2,0-0.6-0.2-0.6-0.3c-0.1-0.5-0.1-1,0-1.5c0-0.1,0.2-0.2,0.3-0.3  c0.1,0,0.2,0.1,0.3,0.2C73.3,56,73.5,56.5,73.6,57.1z"></path><path d="M12.1,45.5c0,0.7-0.5,1.1-1.2,1.1c-0.7,0-1.2-0.7-1.2-1.4c0-0.6,0.7-1.2,1.3-1.1C11.5,44.2,12.1,44.9,12.1,45.5z"></path><path d="M16.4,45.6c0.2-0.1,0.4-0.3,0.6-0.3c0.2,0,0.4,0.2,0.7,0.3c0,0.1-0.1,0.2-0.1,0.3c-0.4,0-0.7,0-1.1,0  C16.5,45.7,16.5,45.7,16.4,45.6z"></path><path d="M39.2,32.8c-0.3,0.3-0.4,0.5-0.7,0.7c-0.1,0.1-0.4,0-0.4,0c-0.1-0.7-0.6-0.5-1-0.5c-0.2,0-0.4-0.2-0.7-0.2  c0.2-0.2,0.3-0.4,0.5-0.5c0.4-0.2,0.8-0.4,1.1-0.8c-0.3,0-0.6,0.1-1.1,0.1c0.5-0.5,0.8-1,1.3-1.4c0.2-0.2,0.6-0.1,0.9-0.1  c0.3,0,0.6,0.1,0.9,0.2c0-0.1,0.1-0.2,0.1-0.2c-0.2-0.2-0.3-0.3-0.5-0.6c0.2-0.1,0.4-0.2,0.6-0.1c1.2,0.2,2.4,0.4,3.6,0.5  c1.6,0.2,2.5,1.3,2.6,2.9c0,0.8,0.3,1.5,0.3,2.3c0,0.4-0.2,0.9-0.5,1.2c-0.3,0.3-0.7,0.3-1,0c-0.7-0.6-1.2-0.7-2-0.1  c-0.2,0.1-0.4,0.2-0.6,0.3c0.1-0.5,0.2-1,0.2-1.5c-0.4-0.1-0.6-0.1-1-0.2c0.6-0.5,1.1-0.6,2.9-0.3c0.2-1.2,0.2-1.2-1-1.8  c0.1-0.2,0.2-0.3,0.4-0.5c-0.8-0.4-1.6-0.6-2.4-0.5c-0.2,0-0.3-0.2-0.5-0.3c-0.3-0.2-0.7-0.3-0.9-0.4c-0.2,0.2-0.5,0.5-0.7,0.5  c-0.7-0.2-0.9,0.2-1.1,0.7c-0.1,0.1-0.2,0.2-0.3,0.4C38.6,32.6,38.8,32.7,39.2,32.8z"></path><path d="M39.3,34.5c0.5,0.2,1,0.5,1.5,0.7c0.2,0.1,0.4-0.1,0.5,0c0.3,0.2,0.6,0.4,0.8,0.6c0.1,0.1-0.1,0.4-0.2,0.5  c-0.1,0.1-0.4,0.1-0.4,0c-0.3-0.6-0.9-0.4-1.4-0.5C39.5,35.6,39.1,35.4,39.3,34.5z"></path><path d="M41.3,34.2c-0.4,0-0.8,0.1-1.2,0c-0.2,0-0.5-0.2-0.7-0.4c0,0,0-0.3,0.1-0.3c0.2-0.1,0.5-0.3,0.7-0.2  c0.4,0.1,0.8,0.4,1.2,0.6C41.4,34,41.4,34.1,41.3,34.2z"></path><path d="M37.5,34.8c-0.4,0-1,0.3-1-0.3c0-0.3,0.5-0.6,0.8-0.9c0.1,0,0.2,0.1,0.2,0.1C37.5,34,37.5,34.4,37.5,34.8z"></path><path d="M30.1,46.8c-0.5,0.6-1.5,0.7-1.9,0.2c-0.1-0.1,0-0.4,0-0.7c0.2,0,0.3,0.1,0.5,0.1c0.2,0.1,0.4,0.2,0.6,0.2  C29.6,46.7,29.8,46.8,30.1,46.8z"></path><path d="M53.5,36.2c0,0,0.1,0,0.1,0.1c0.8,0.8,0.9,0.9,1.6,0c0.5-0.6,1-0.6,1.6-0.5c0.7,0.1,0.8-0.2,0.5-0.9c-1.7,0-3.5,0-5.2,0  c0.2,0.3,0.4,0.5,0.6,0.8c-0.7,0.1-1.2,0.3-1.9,0.4c-0.5-0.3-0.8-1.3-0.4-2c0.5-0.7,1.4-0.7,2.1-0.7c0.2,0.3,0.4,0.6,0.6,0.9  c0.1,0,0.1,0,0.2-0.1c-0.2-0.6-0.1-1,0.6-0.9c0.7,0.1,1.4,0.2,2.1,0.2c0.4,0,0.8-0.2,1.2-0.4c-2.3-0.4-4.5-0.7-6.7,0.3  c0-0.1,0-0.2,0-0.4c0.2,0,0.4,0.1,0.7,0.1c-0.2-0.2-0.3-0.3-0.4-0.4c-0.1-0.2-0.3-0.3-0.4-0.5c0.2-0.1,0.4-0.3,0.6-0.3  c0.7,0,1.3,0,2,0.1c0.6,0,1.3,0,1.9,0c0.8,0.1,1.6,0.1,2.3,0.3c1.5,0.4,2.4,2.9,1.6,4.2c-0.2,0.3-0.2,0.7-0.1,1.1  c0.2,0.8,0.1,1-0.6,1.2c-1.3,0.2-2.6,0.3-3.7-0.4c-0.5-0.3-1.1-0.4-1.6-0.8c-0.4-0.3-0.4-0.5,0-0.8C53,36.6,53.2,36.5,53.5,36.2z   M56.8,38c-1-0.8-1-0.8-2,0.1C55.4,38.1,56.1,38.1,56.8,38z"></path><path d="M34,29.9c-0.9,0-1.6,0-2.3,0c-0.6,0-1.3,0.1-1.9,0.2c0.1,0,0.2,0,0.3,0.1c0.1,0.1,0.3,0.2,0.4,0.3c-0.1,0.1-0.2,0.2-0.3,0.3  c-0.1,0.1-0.3,0.1-0.3,0.1c0,0.1,0,0.3,0.1,0.5c0.1-0.1,0.2-0.1,0.3-0.2c0.1-0.1,0.2-0.3,0.3-0.3c0.7,0,1.4,0,2.2,0  c0.1,0,0.2,0.1,0.3,0.2c-0.2,0.3-0.4,0.5-0.6,0.8c-0.4-0.8-0.5-0.8-0.8-0.4c-0.4,0.1-0.6,0.1-0.8,0.2c-0.5,0.2-0.9,0.3-1.4,0.5  c-0.1,0.1-0.2,0.3-0.2,0.4c-0.1,0.1-0.2,0.3-0.3,0.3c-0.1,0-0.3-0.1-0.4-0.2c-0.5-0.6-0.1-1.9,0.6-2.3c0.1,0,0.1-0.2,0.2-0.3  c0.1-0.1,0.2-0.4,0.3-0.4c1-0.3,1.9-0.6,2.9-0.8C33,28.8,33.5,29.2,34,29.9z"></path><path d="M29.3,34c0.2-0.2,0.5-0.3,0.8-0.6c-0.2-0.2-0.5-0.4-0.7-0.6c0.9-0.9,2-1,2.9,0c-0.6,0-1.1,0.1-1.5,0.1c0,0.1,0,0.1-0.1,0.2  c0.2,0.1,0.5,0.3,0.8,0.5c-0.6,0.7-1.4,0.5-2.1,0.7C29.3,34.2,29.3,34.1,29.3,34z"></path><path d="M25.9,32.4c0.5,0.1,1.1,0.1,1.6,0.3c0.4,0.2,0.8,0.6,1.1,0.9c0.1,0,0.1-0.1,0.2-0.1c0,0.3,0.1,0.5,0.1,1  c-0.6-0.3-1.1-0.5-1.7-0.8c-0.5,0.3-1.1,0.3-1.5-0.3c0.1-0.3,0.2-0.5,0.3-0.7C26,32.5,26,32.5,25.9,32.4z"></path><path d="M27.4,31c0.1,0.3,0.3,0.6,0.4,1c-0.2,0-0.6,0-0.6-0.1c-0.1-0.2-0.1-0.5-0.1-0.8C27.2,31,27.3,31,27.4,31z"></path><path d="M40.5,50.5c1.5,0,2.9,0,4.4,0C44.1,51.2,40.9,51.2,40.5,50.5z"></path><path d="M37.1,50.4c0.6-0.7,1.5-0.8,2.5-0.3C38.7,50.2,38,50.3,37.1,50.4z"></path><path d="M55.3,47c-0.2,0-0.5,0-0.6-0.1c-0.3-0.4-0.9-0.8-0.4-1.4c0.2-0.2,0.6-0.5,0.8-0.4c0.6,0.3,0.8-0.2,1.3-0.4  c-0.9-0.3-1.7,0.6-2.5,0.1c0.5-0.4,0.9-0.7,1.4-1c0.1-0.1,0.3-0.2,0.4-0.2c0.3,0,0.8,0.1,1,0c0.2-0.2,0.1-0.6,0.2-1  c-1.2,0-2.4,0-3.6,0c0-1,0.2-1.1,1.4-1c0.8,0.1,1.6,0,2.4,0.2c0.4,0.1,0.8,0.2,1.2,0.5c0.6,0.4,0.5,0.5,0.2,0.9  c0.2,0.6,0.4,1.1,0.6,1.7c-0.1,0-0.2,0.1-0.2,0.1c-0.1-0.2-0.3-0.4-0.4-0.5c-0.2-0.1-0.4,0-0.6,0c0,0.1,0,0.1-0.1,0.2  c0.4,0.2,0.8,0.3,1.1,0.6c0.2,0.3,0.2,0.7,0.4,1.2c-0.4-0.2-0.6-0.2-0.9-0.3c-0.1,0.1-0.1,0.3-0.2,0.4c-0.1,0.2-0.3,0.4-0.3,0.4  c-0.2-0.1-0.5-0.2-0.7-0.4c-0.1-0.1,0-0.3,0-0.5c0-0.2,0.1-0.4,0.1-0.6c-0.2,0-0.4-0.1-0.6-0.1c-0.1,0-0.2,0.1-0.3,0.1  C55.1,45.8,55,45.8,55.3,47z"></path><path d="M53.2,44.1c0.3-0.7,0.8-1,1.5-0.8C54.5,44,54.5,44,53.2,44.1z"></path><path d="M56.4,46.4c-0.2,0.2-0.3,0.3-0.5,0.5c-0.1-0.2-0.3-0.3-0.3-0.5c0-0.2,0.2-0.3,0.3-0.5C56.1,46.1,56.2,46.2,56.4,46.4z"></path><path d="M29.7,39.5c0,0.2,0,0.4,0,0.4c-0.6,0.1-1.3,0.3-1.9,0.3c-0.7,0.1-1.4,0.1-2.1,0.2c0,0.1,0,0.2,0.1,0.2  c-0.1,0.3-0.1,0.5-0.2,0.8c-0.3-0.2-0.6-0.5-0.8-0.8c-0.1-0.1,0.3-0.5,0.5-0.8c-0.3-0.4,0-0.9,0.4-1.4c0.2-0.2,0.4-0.4,0.5-0.7  c0.2-0.8,0.7-1.2,1.6-1.1c0.9,0.1,1.3,0.3,1.4,0.9c0.8,0.1,1.5,0.1,2.2,0.3c0.7,0.2,1.2,0.9,1,1.3c-0.3,0.7-1.1,0.9-1.8,0.6  C30.2,39.8,30,39.6,29.7,39.5z M27.9,37.6c-0.6,0.6-1.6,0.7-1.2,1.6c0.8,0,1.6,0,2.4,0C28.3,39.1,28.2,38.3,27.9,37.6z"></path><path d="M30.2,42.6c-0.5-0.1-0.9-0.2-1.3-0.3c-0.4-0.1-0.8-0.1-1.2-0.2c-0.2,0-0.5-0.2-0.5-0.3c0-0.2,0.1-0.5,0.3-0.5  c0.8-0.3,1.6-0.7,2.4-0.8c0.5-0.1,1.1,0.4,1.7,0.6c-0.2,0.4-0.3,0.9-0.5,1.3C30.9,42.5,30.5,42.5,30.2,42.6z"></path><path d="M44.4,45.3c-0.3,0-0.6,0.1-1,0.1c0.2-0.3,0.2-0.5,0.3-0.7c-0.1,0-0.1,0.1-0.2,0.1c-0.2-0.4-0.5-0.8-0.6-1.2  c-0.1-0.2,0.3-0.5,0.4-0.7c-0.1-0.2-0.3-0.5-0.4-0.8c0.4-0.1,0.9-0.2,1.4-0.2c0-0.3-0.2-0.8-0.1-1.3c0-0.1,0.3-0.4,0.5-0.4  c0.7-0.1,1.5-0.1,2.2,0c0.4,0,0.8,0.2,1.1,0.3c0,0.1,0,0.2,0,0.3c-0.8,0-1.5,0-2.3,0c0,0.1,0,0.1,0,0.2c0.3,0,0.5,0,0.8,0.1  c0.2,0,0.4,0.1,0.6,0.2c-0.2,0.1-0.3,0.3-0.5,0.4c0.3,0.2,0.8,0.5,1.2,0.5c0.9,0,1.3,0.7,1.8,1.2c0.5,0.5,0.3,1,0.1,1.3  c0.3,0.4,0.6,0.8,0.9,1.1c-0.4,0.2-0.8,0.6-1.2,0.6c-1.2,0.1-2.5,0-3.7-0.1c-0.4,0-0.8-0.4-1.3-0.6C44.4,45.4,44.4,45.3,44.4,45.3z   M45.7,44c-0.6-0.5-1-1-1.6-1.5c-0.1,0.4-0.2,0.7-0.2,0.9c0.4,0.3,0.7,0.5,1.1,0.8C45.1,44.2,45.3,44.1,45.7,44z M46.7,44.5  c0.1-0.1,0.1-0.1,0.2-0.2c-0.4-0.6-0.6-1.3-1.6-1.2C45.8,43.6,46.3,44,46.7,44.5z M45.9,42c0.1-0.3,0.1-0.5,0.2-0.7  c-0.5,0-0.8-0.1-1.3-0.1c0,0.3,0,0.5-0.1,0.8c0.4-0.2,0.6-0.3,0.9-0.4C45.7,41.7,45.8,41.8,45.9,42z"></path><path d="M35,43.2c-0.2-0.1-0.4-0.2-0.6-0.3c0.3-0.4,0.3-0.4,1.3,0c-0.1-0.3-0.2-0.6-0.2-0.9c0.4,0,0.9,0.1,1.3,0.2  c0.1,0,0,0.5,0,0.8c0.6,0.1,1.4,0.1,2.1,0.2c1,0.1,1.5,0.9,1.1,1.8c-0.1,0.1-0.3,0.3-0.4,0.3c-1,0-2,0-3-0.2  c-0.6-0.1-1.2-0.4-1.8-0.7c-0.2-0.1-0.4-0.3-0.6-0.4c0.2-0.2,0.3-0.4,0.5-0.6C34.7,43.2,34.8,43.2,35,43.2z M36.2,43.2  c-0.2,0.4-0.4,0.7-0.5,1c0.1,0,0.1,0.1,0.2,0.1c0.5-0.2,1-0.4,1.7-0.7C37.1,43.4,36.7,43.3,36.2,43.2z"></path><path d="M37.2,42.3c0.1-0.2,0.2-0.4,0.4-0.7c-0.8-0.1-1.5-1-2.6-0.4c0-0.4,0-0.8,0.1-1.1c0.1-0.2,0.5-0.3,0.8-0.3  c0.5-0.1,0.9-0.1,1.5-0.1c0.4,0.2,1,0.4,1.5,0.7c0.3,0.1,0.6,0.3,0.9,0.5c0.2,0.2,0.5,0.5,0.5,0.7c-0.1,0.2-0.4,0.4-0.7,0.6  C38.9,42.6,38.1,42.6,37.2,42.3z"></path><path d="M39.2,27c0.3-0.1,0.4-0.2,0.7-0.4c-0.3-0.1-0.5-0.2-0.8-0.3c0.1-0.1,0.1-0.2,0.2-0.4c0.2,0,0.5,0,0.7,0  c0.4,0.1,0.7,0.2,0.9-0.4c0.3-0.7,0.6-1.2,1.4-0.7c0.6-0.5,2-0.3,2.4,0.4c0.1,0.1,0,0.4-0.1,0.6c0,0.3-0.2,0.5-0.1,0.8  c0.1,0.7-0.1,1.1-0.9,1.1c-0.8,0-1.6,0-2.3,0c0-0.1,0-0.1,0-0.2c0.3-0.1,0.7-0.2,1-0.4c0-0.1,0-0.1-0.1-0.2c-0.7-0.3-1.3-0.5-2,0.3  C39.9,27.8,39.6,27.1,39.2,27z"></path><path d="M37.5,25.4c0.4-0.6,1.2-0.8,1.9-0.3c0.1-0.2,0.2-0.4,0.4-0.7c0.2,0.4,0.3,0.7,0.5,1C39.3,25.4,38.4,25.4,37.5,25.4z"></path><path d="M21.7,38.1c-0.3-0.3-0.5-0.5-0.8-0.8c0.5-0.1,0.8-0.2,1.2-0.3c0.1,0.1,0.1,0.1,0.2,0.2C22.1,37.4,21.9,37.7,21.7,38.1z"></path></svg>

